<svg width="36" height="36" viewBox="0 0 36 36" fill="none" xmlns="http://www.w3.org/2000/svg">
  <path d="M18.8648 1.51895C18.7664 1.53301 18.457 1.58223 18.1758 1.62442C17.5008 1.72286 16.5937 2.03223 15.9187 2.39786C14.0977 3.3752 12.8039 4.99239 12.2062 7.04551L12.0164 7.69942L11.9883 13.5846L11.9672 19.4768H9.64687C8.37422 19.4768 7.02422 19.5119 6.65156 19.5541C4.00781 19.8494 1.77891 21.4525 0.646875 23.8783C0.492187 24.2018 0.28125 24.7854 0.182812 25.158C0.0210937 25.7627 0 25.9736 0 27.0002C0 28.0338 0.0210937 28.2377 0.182812 28.8635C0.808594 31.2119 2.62266 33.2229 4.83047 34.0174C6.19453 34.5166 5.26641 34.4815 17.4234 34.5096C25.0242 34.5236 28.6242 34.5096 29.1445 34.4533C32.3297 34.1299 34.8609 31.9713 35.7258 28.8424L35.9156 28.1604V18.0002V7.84004L35.7258 7.15801C34.875 4.07129 32.3648 1.89864 29.25 1.55411C28.6312 1.4838 19.3148 1.45567 18.8648 1.51895ZM23.3016 7.63614C23.8289 7.79786 24.2016 8.02989 24.6164 8.45879C25.3477 9.23926 25.4742 9.73848 25.4742 11.9533C25.4742 12.8252 25.4461 13.7182 25.4039 13.9502C25.193 15.2369 24.1875 16.2424 22.9008 16.4533C22.6687 16.4955 21.7758 16.5236 20.9039 16.5236C18.6891 16.5236 18.1898 16.3971 17.4094 15.6658C16.9734 15.2439 16.7414 14.8783 16.5797 14.3299C16.4812 13.9924 16.4672 13.6197 16.4883 11.8268L16.5094 9.73145L16.7766 9.19707C17.1562 8.42364 17.7891 7.88926 18.6187 7.62207C18.8156 7.55879 19.4906 7.53067 20.9109 7.53067C22.5562 7.52364 22.9852 7.54473 23.3016 7.63614ZM30.6914 19.7088C31.282 20.0533 31.5633 20.7565 31.3734 21.4244C31.2609 21.8393 30.825 22.2963 30.4242 22.4158C30.2062 22.4791 28.6312 22.5002 23.8992 22.5002C18.4219 22.5002 17.6344 22.4861 17.4023 22.3877C16.8469 22.1557 16.4742 21.6143 16.4742 21.0236C16.4742 20.2854 16.868 19.765 17.5992 19.54C17.6977 19.5119 20.6086 19.4908 24.068 19.4979L30.3609 19.5119L30.6914 19.7088ZM11.9531 25.1158C11.925 27.9916 11.9039 28.1322 11.468 28.9971C10.7297 30.4666 9.34453 31.3736 7.68516 31.4791C5.57578 31.6127 3.56484 30.115 3.08672 28.0549C2.94609 27.4713 2.94609 26.5291 3.08672 25.9455C3.375 24.715 4.29609 23.5619 5.43516 22.9994C6.37734 22.5424 6.60234 22.5143 9.46406 22.5072L11.9883 22.5002L11.9531 25.1158ZM30.593 25.6572C31.5703 26.1565 31.7391 27.401 30.9375 28.1041C30.7969 28.2307 30.5578 28.3643 30.4172 28.4065C30.2273 28.4627 28.2375 28.4768 23.7797 28.4627L17.4164 28.4416L17.1562 28.2658C17.0086 28.1674 16.8047 27.9635 16.6992 27.8158C16.5305 27.5697 16.5094 27.4713 16.5094 26.9932C16.5094 26.501 16.5305 26.4236 16.7203 26.1494C16.8398 25.9877 17.0719 25.7768 17.2406 25.6854L17.55 25.5236H23.9414C30.0937 25.5236 30.3398 25.5307 30.593 25.6572Z" fill="#7750F1"/>
  <path d="M19.477 10.5258C19.4488 10.5469 19.4277 11.2289 19.4277 12.0375V13.5H20.9395H22.4512V11.9883V10.4766H20.9887C20.1801 10.4766 19.498 10.4977 19.477 10.5258Z" fill="#7750F1"/>
</svg>
