<svg width="24" height="24" viewBox="0 0 24 24" fill="none" xmlns="http://www.w3.org/2000/svg">
  <path d="M10 17.6998H6.21C2.41 17.6998 1.25 16.5398 1.25 12.7398V6.73979C1.25 2.93979 2.41 1.77979 6.21 1.77979H16.74C20.54 1.77979 21.7 2.93979 21.7 6.73979C21.7 7.14979 21.36 7.48979 20.95 7.48979C20.54 7.48979 20.2 7.14979 20.2 6.73979C20.2 3.79979 19.68 3.27979 16.74 3.27979H6.21C3.27 3.27979 2.75 3.79979 2.75 6.73979V12.7398C2.75 15.6798 3.27 16.1998 6.21 16.1998H10C10.41 16.1998 10.75 16.5398 10.75 16.9498C10.75 17.3598 10.41 17.6998 10 17.6998Z" fill="#292D32"/>
  <path d="M10 22.2199C9.59 22.2199 9.25 21.8799 9.25 21.4699V16.9399C9.25 16.5299 9.59 16.1899 10 16.1899C10.41 16.1899 10.75 16.5299 10.75 16.9399V21.4699C10.75 21.8899 10.41 22.2199 10 22.2199Z" fill="#292D32"/>
  <path d="M10 13.7002H2C1.59 13.7002 1.25 13.3602 1.25 12.9502C1.25 12.5402 1.59 12.2002 2 12.2002H10C10.41 12.2002 10.75 12.5402 10.75 12.9502C10.75 13.3602 10.41 13.7002 10 13.7002Z" fill="#292D32"/>
  <path d="M9.99999 22.2202H6.73999C6.32999 22.2202 5.98999 21.8802 5.98999 21.4702C5.98999 21.0602 6.32999 20.7202 6.73999 20.7202H9.99999C10.41 20.7202 10.75 21.0602 10.75 21.4702C10.75 21.8802 10.41 22.2202 9.99999 22.2202Z" fill="#292D32"/>
  <path d="M19.04 22.2198H15.49C12.72 22.2198 11.78 21.2798 11.78 18.5098V12.7998C11.78 10.0298 12.72 9.08984 15.49 9.08984H19.04C21.81 9.08984 22.75 10.0298 22.75 12.7998V18.5098C22.75 21.2898 21.81 22.2198 19.04 22.2198ZM15.49 10.5898C13.53 10.5898 13.28 10.8398 13.28 12.7998V18.5098C13.28 20.4698 13.53 20.7198 15.49 20.7198H19.04C21 20.7198 21.25 20.4698 21.25 18.5098V12.7998C21.25 10.8398 21 10.5898 19.04 10.5898H15.49Z" fill="#292D32"/>
  <path d="M17.3 18.9698C17.04 18.9698 16.78 18.8698 16.59 18.6798C16.5 18.5898 16.43 18.4798 16.38 18.3598C16.33 18.2298 16.3 18.0998 16.3 17.9698C16.3 17.7098 16.41 17.4498 16.59 17.2698C16.82 17.0398 17.17 16.9298 17.5 16.9898C17.56 17.0098 17.62 17.0298 17.68 17.0498C17.74 17.0798 17.8 17.1098 17.85 17.1398C17.91 17.1798 17.96 17.2198 18.01 17.2698C18.19 17.4498 18.3 17.7098 18.3 17.9698C18.3 18.0998 18.27 18.2298 18.22 18.3598C18.17 18.4798 18.1 18.5898 18.01 18.6798C17.96 18.7298 17.91 18.7698 17.85 18.7998C17.8 18.8398 17.74 18.8698 17.68 18.8998C17.62 18.9198 17.56 18.9398 17.5 18.9498C17.43 18.9698 17.37 18.9698 17.3 18.9698Z" fill="#292D32"/>
</svg>
