<svg width="36" height="36" viewBox="0 0 36 36" fill="none" xmlns="http://www.w3.org/2000/svg">
<g id="advertisement 1">
<g id="Group">
<path id="Vector" d="M3.8926 5.10537C3.54104 5.22491 3.29495 5.45694 3.13323 5.8085C3.00667 6.07569 2.99963 6.58194 2.99963 18.4999C2.99963 30.3897 3.00667 30.9241 3.13323 31.1913C3.28792 31.5429 3.61838 31.8312 3.96995 31.9296C4.33557 32.028 31.6168 32.028 31.9824 31.9296C32.334 31.8312 32.6645 31.5429 32.8192 31.1913C32.9457 30.9241 32.9528 30.3897 32.9528 18.4999C32.9528 6.61006 32.9457 6.07569 32.8192 5.8085C32.6645 5.45694 32.334 5.16866 31.9824 5.07022C31.8067 5.021 27.2153 4.9999 17.941 4.9999C6.45198 5.00694 4.1176 5.021 3.8926 5.10537ZM16.4504 18.4507C17.7512 21.7062 18.8199 24.3921 18.8199 24.4272C18.8199 24.4554 18.0887 24.4694 17.1887 24.4624L15.5574 24.4413L15.2692 23.7171L14.9879 22.9999L12.5692 23.014L10.1574 23.0351L9.86916 23.7522L9.58791 24.4765H7.93557C6.64885 24.4765 6.29729 24.4554 6.32541 24.3851C6.84573 23.0702 11.0364 12.6147 11.0645 12.5726C11.0785 12.5444 11.7676 12.5233 12.5903 12.5233H14.0809L16.4504 18.4507ZM28.4528 18.4999V24.4765H25.8653C22.9895 24.4765 22.8418 24.4624 21.9207 24.0124C21.2809 23.696 20.5074 22.9788 20.1348 22.3601C19.7059 21.6288 19.509 20.9187 19.502 20.0468C19.4949 19.1749 19.6215 18.6194 19.9871 17.8952C20.3106 17.2413 20.8379 16.6577 21.4707 16.2429C22.3356 15.6804 23.1653 15.4835 24.677 15.4765H25.4996V13.9999V12.5233H26.9762H28.4528V18.4999Z" fill="#7750F1"/>
<path id="Vector_2" d="M12.5856 16.3825C12.5856 16.4036 12.3184 17.0997 12.002 17.9294L11.4184 19.4411L12.5715 19.4622C13.2114 19.4692 13.7387 19.4692 13.7528 19.4551C13.7668 19.4411 13.5067 18.738 13.1832 17.8872C12.8598 17.0434 12.5856 16.3614 12.5856 16.3825Z" fill="#7750F1"/>
<path id="Vector_3" d="M23.336 18.1969C22.8298 18.4641 22.5485 18.9 22.5134 19.5047C22.4853 19.8984 22.5064 19.9617 22.7243 20.2852C22.879 20.5172 23.0689 20.6859 23.3079 20.8125C23.6243 20.9742 23.7298 20.9883 24.5735 20.9883H25.4876L25.5087 19.4906L25.5228 18H24.6157C23.7579 18 23.6876 18.0141 23.336 18.1969Z" fill="#7750F1"/>
</g>
</g>
</svg>
