<svg width="37" height="36" viewBox="0 0 37 36" fill="none" xmlns="http://www.w3.org/2000/svg">
  <path d="M4.61422 1.23769C3.42594 1.5541 2.49782 2.50332 2.18141 3.70566C2.01969 4.31738 2.02672 20.44 2.18141 21.0588C2.49782 22.2682 3.44 23.2033 4.65641 23.5197C5.25407 23.6744 14.6478 23.6744 15.2455 23.5197C16.4619 23.2033 17.4041 22.2682 17.7205 21.0588C17.8752 20.44 17.8822 4.31738 17.7205 3.70566C17.4041 2.48926 16.4689 1.54707 15.2595 1.23066C14.6619 1.07598 5.19782 1.08301 4.61422 1.23769Z" fill="#7750F1"/>
  <path d="M22.6142 1.23749C21.4259 1.55389 20.4978 2.50311 20.1814 3.70545C20.0337 4.28202 20.0337 6.97499 20.1814 7.55858C20.4978 8.76795 21.44 9.70311 22.6564 10.0195C23.2611 10.1812 32.6478 10.1742 33.2595 10.0195C34.4689 9.70311 35.4041 8.76092 35.7205 7.54452C35.8681 6.97499 35.8681 4.27499 35.7205 3.70545C35.4041 2.48905 34.4689 1.54686 33.2595 1.23045C32.6619 1.07577 23.1978 1.0828 22.6142 1.23749Z" fill="#7750F1"/>
  <path d="M22.6142 12.4877C21.4259 12.8041 20.4978 13.7533 20.1814 14.9557C20.0197 15.5674 20.0267 31.69 20.1814 32.3088C20.4978 33.5182 21.44 34.4533 22.6564 34.7697C23.2541 34.9244 32.6478 34.9244 33.2455 34.7697C34.4619 34.4533 35.4041 33.5182 35.7205 32.3088C35.8752 31.69 35.8822 15.5674 35.7205 14.9557C35.4041 13.7393 34.4689 12.7971 33.2595 12.4807C32.6619 12.326 23.1978 12.333 22.6142 12.4877Z" fill="#7750F1"/>
  <path d="M4.61423 25.9875C3.42594 26.3039 2.49782 27.2531 2.18141 28.4555C2.03376 29.032 2.03376 31.725 2.18141 32.3086C2.49782 33.518 3.44001 34.4531 4.65641 34.7695C5.2611 34.9312 14.6478 34.9242 15.2595 34.7695C16.4689 34.4531 17.4041 33.5109 17.7205 32.2945C17.8681 31.725 17.8681 29.025 17.7205 28.4555C17.4041 27.239 16.4689 26.2969 15.2595 25.9805C14.6619 25.8258 5.19782 25.8328 4.61423 25.9875Z" fill="#7750F1"/>
</svg>
