<svg width="16" height="16" viewBox="0 0 16 16" fill="none" xmlns="http://www.w3.org/2000/svg">
<g id="vuesax/outline/status-up">
<g id="status-up">
<path id="Vector" d="M4.58667 12.6002C4.31334 12.6002 4.08667 12.3735 4.08667 12.1002V10.7202C4.08667 10.4469 4.31334 10.2202 4.58667 10.2202C4.86 10.2202 5.08667 10.4469 5.08667 10.7202V12.1002C5.08667 12.3802 4.86 12.6002 4.58667 12.6002Z" fill="#9058FF"/>
<path id="Vector_2" d="M8 12.6002C7.72667 12.6002 7.5 12.3735 7.5 12.1002V9.3335C7.5 9.06016 7.72667 8.8335 8 8.8335C8.27333 8.8335 8.5 9.06016 8.5 9.3335V12.1002C8.5 12.3802 8.27333 12.6002 8 12.6002Z" fill="#9058FF"/>
<path id="Vector_3" d="M11.4133 12.5998C11.14 12.5998 10.9133 12.3731 10.9133 12.0998V7.95312C10.9133 7.67979 11.14 7.45312 11.4133 7.45312C11.6867 7.45312 11.9133 7.67979 11.9133 7.95312V12.0998C11.9133 12.3798 11.6933 12.5998 11.4133 12.5998Z" fill="#9058FF"/>
<path id="Vector_4" d="M4.58667 8.78645C4.36 8.78645 4.16 8.63312 4.1 8.40645C4.03334 8.13978 4.19334 7.86645 4.46667 7.79978C6.92 7.18645 9.08 5.84645 10.7267 3.93312L11.0333 3.57312C11.2133 3.36645 11.5267 3.33978 11.74 3.51978C11.9467 3.69978 11.9733 4.01312 11.7933 4.22645L11.4867 4.58645C9.70667 6.66645 7.36 8.11312 4.70667 8.77312C4.66667 8.78645 4.62667 8.78645 4.58667 8.78645Z" fill="#9058FF"/>
<path id="Vector_5" d="M11.4133 6.34657C11.14 6.34657 10.9133 6.1199 10.9133 5.84657V4.3999H9.46001C9.18667 4.3999 8.96001 4.17324 8.96001 3.8999C8.96001 3.62657 9.18667 3.3999 9.46001 3.3999H11.4133C11.6867 3.3999 11.9133 3.62657 11.9133 3.8999V5.85324C11.9133 6.12657 11.6933 6.34657 11.4133 6.34657Z" fill="#9058FF"/>
<path id="Vector_6" d="M10 15.1668H6.00001C2.38001 15.1668 0.833344 13.6202 0.833344 10.0002V6.00016C0.833344 2.38016 2.38001 0.833496 6.00001 0.833496H10C13.62 0.833496 15.1667 2.38016 15.1667 6.00016V10.0002C15.1667 13.6202 13.62 15.1668 10 15.1668ZM6.00001 1.8335C2.92668 1.8335 1.83334 2.92683 1.83334 6.00016V10.0002C1.83334 13.0735 2.92668 14.1668 6.00001 14.1668H10C13.0733 14.1668 14.1667 13.0735 14.1667 10.0002V6.00016C14.1667 2.92683 13.0733 1.8335 10 1.8335H6.00001Z" fill="#9058FF"/>
</g>
</g>
</svg>
