<svg width="37" height="36" viewBox="0 0 37 36" fill="none" xmlns="http://www.w3.org/2000/svg">
  <path d="M24.8085 2.72109C24.7101 2.8125 24.6468 3.00937 24.5906 3.43125C24.3726 5.04141 23.1984 6.17344 21.5531 6.35625C21.0117 6.41953 20.9203 6.48281 20.9203 6.78516C20.9203 7.10156 21.0468 7.17891 21.6726 7.24922C23.1984 7.41797 24.3796 8.58516 24.5906 10.1391C24.6749 10.7437 24.8015 10.9688 25.0687 10.9688C25.2656 10.9688 25.4906 10.6312 25.4906 10.343C25.4906 9.96328 25.6804 9.28828 25.8914 8.92969C26.4539 7.96641 27.5999 7.24219 28.5492 7.24219C29.0765 7.24219 29.407 6.80625 29.0976 6.51797C29.0273 6.46172 28.7249 6.37734 28.4085 6.33516C27.0445 6.15234 25.9335 5.18906 25.596 3.90234C25.5398 3.67031 25.4906 3.36797 25.4906 3.21328C25.4906 3.02344 25.4414 2.89687 25.3148 2.77734C25.1109 2.56641 24.9914 2.55937 24.8085 2.72109Z" fill="#7750F1"/>
  <path d="M12.1026 5.71654C12.0112 5.77982 11.962 5.96263 11.9198 6.33529C11.8143 7.24232 11.5049 7.8681 10.8721 8.45873C10.3237 8.97201 9.41665 9.3517 8.74165 9.3517C8.30571 9.3517 8.05961 9.70326 8.28461 10.0126C8.3479 10.104 8.55883 10.1673 8.98774 10.2306C10.3518 10.4345 11.3573 11.2501 11.7721 12.4947C11.8565 12.7337 11.9198 13.0572 11.9198 13.2119C11.9198 13.7533 12.1237 13.9923 12.5174 13.8939C12.7143 13.8447 12.7354 13.7814 12.8338 13.0853C13.0377 11.6298 14.1838 10.4697 15.6252 10.2517C15.8924 10.2165 16.1666 10.1673 16.251 10.1533C16.3284 10.1392 16.4338 10.0408 16.4831 9.93529C16.5534 9.77357 16.5463 9.72435 16.4338 9.56966C16.3565 9.45716 16.2159 9.37982 16.0963 9.36576C15.9838 9.35873 15.7096 9.31654 15.4776 9.27435C14.1416 9.03529 13.0377 7.8681 12.8338 6.49701C12.7987 6.22982 12.7635 5.9767 12.7635 5.92748C12.7635 5.67435 12.3416 5.54076 12.1026 5.71654Z" fill="#7750F1"/>
  <path d="M19.3377 13.1415C18.9229 13.254 18.7401 13.3595 18.4307 13.6408C17.376 14.6181 17.7346 16.4462 19.0776 16.9033C20.7229 17.4658 22.2346 15.8697 21.5526 14.2876C21.3768 13.8869 20.9057 13.4087 20.5331 13.247C20.2307 13.1205 19.612 13.0712 19.3377 13.1415Z" fill="#7750F1"/>
  <path d="M6.42799 15.9187C6.28737 15.9679 6.07643 16.0734 5.9569 16.1578C5.68971 16.3476 5.38034 16.9593 5.38034 17.2898C5.37331 17.7046 5.68268 20.3203 5.73893 20.3203C5.76002 20.3203 8.57956 20.7281 11.9967 21.2343C15.4139 21.7335 18.2264 22.1273 18.2475 22.0992C18.2686 22.0781 17.9522 21.7476 17.5444 21.3609C14.521 18.4921 11.1741 16.6429 7.7569 15.9609C6.94127 15.7992 6.77252 15.7921 6.42799 15.9187Z" fill="#7750F1"/>
  <path d="M29.9554 15.9963C27.1288 16.6221 24.4429 17.951 21.9749 19.9549C20.9765 20.7635 19.5983 22.0432 19.6616 22.1065C19.6827 22.1276 22.1788 21.7831 25.2163 21.3401C32.1913 20.3135 32.2054 20.3135 32.2124 20.2995C32.2687 20.2151 32.5288 17.4096 32.5007 17.1846C32.4515 16.7487 32.1562 16.2776 31.7835 16.0667C31.3476 15.8065 30.8905 15.7854 29.9554 15.9963Z" fill="#7750F1"/>
  <path d="M4.45932 21.1219C4.02338 21.2344 3.72807 21.4594 3.50307 21.8531L3.3062 22.1836L3.2851 24.1312L3.26401 26.0859H10.2179C16.8624 26.0859 17.1789 26.093 17.2843 26.2125C17.3898 26.325 17.4039 26.55 17.4039 27.9V29.4609H18.9507H20.4976V27.893C20.4976 26.4586 20.5117 26.3109 20.6242 26.2055C20.7437 26.093 21.3343 26.0859 27.6976 26.0859H34.6374L34.6164 24.1312L34.5953 22.1836L34.3984 21.8461C34.2929 21.6633 34.082 21.4383 33.9414 21.3398C33.4351 21.0094 33.2593 21.0094 30.9882 21.3398C29.8351 21.5086 26.7203 21.9727 24.0484 22.3594C21.3835 22.7531 19.0843 23.0766 18.9507 23.0766C18.8171 23.0766 17.4109 22.8797 15.8218 22.6477C11.4835 22.0078 10.2109 21.825 7.59526 21.4453C6.28041 21.2555 5.11323 21.0797 4.9937 21.0656C4.8812 21.0445 4.6351 21.0727 4.45932 21.1219Z" fill="#7750F1"/>
  <path d="M3.0604 27.0914C1.94946 27.675 1.95649 29.1867 3.0604 29.8125L3.3768 29.9883L8.44633 30.0094L13.5159 30.0305L13.5651 30.3469C13.6284 30.8391 14.0362 31.6336 14.4581 32.0906C14.9362 32.618 15.5338 33.0047 16.1737 33.2086C16.6377 33.3563 16.7854 33.3633 18.951 33.3633C21.1166 33.3633 21.2643 33.3563 21.7284 33.2086C22.3682 33.0047 22.9659 32.618 23.444 32.0906C23.8659 31.6336 24.2737 30.8391 24.337 30.3469L24.3862 30.0305L29.4557 30.0094L34.5252 29.9883L34.8416 29.8125C35.9456 29.1867 35.9526 27.675 34.8416 27.0914L34.5393 26.9297H28.0565C21.9604 26.9297 21.5666 26.9367 21.4612 27.0563C21.3698 27.1547 21.3487 27.4148 21.3276 28.5258L21.3065 29.8828L21.1096 30.0727L20.9198 30.2695H18.951H16.9823L16.7924 30.0727L16.5956 29.8828L16.5745 28.5258C16.5534 27.4148 16.5323 27.1547 16.4409 27.0563C16.3354 26.9367 15.9416 26.9297 9.84555 26.9297H3.36274L3.0604 27.0914Z" fill="#7750F1"/>
</svg>
